<?xml version="1.0" encoding="utf-8"?>
<!-- Generator: Adobe Illustrator 18.1.0, SVG Export Plug-In . SVG Version: 6.00 Build 0)  -->
<svg version="1.1" id="Layer_1" xmlns="http://www.w3.org/2000/svg" xmlns:xlink="http://www.w3.org/1999/xlink" x="0px" y="0px"
	 viewBox="0 0 150 150" enable-background="new 0 0 150 150" xml:space="preserve">
<g>
	<path fill="#22322E" d="M82,82.9v-7.6c0-4.3-1.8-5.3-6.7-5.3h-4c-2.9,0-4.5,0.3-5.5,1.5c1.9,3.2,3,6.8,3,10.9
		c0,11.9-9.6,21.4-21.5,21.4c-11.9,0-21.5-9.7-21.5-21.5c0-11.9,9.6-21.5,21.5-21.5c4.8,0,9,1.6,12.5,4.2c1.6-0.6,2.1-2,2.1-4.5
		v-7.5c0-3.1,2.4-5.6,5.3-6.2c-5.9-3.4-12.7-5.3-20-5.3c-22.6,0-40.8,18.3-40.8,40.8c0,22.6,40.9,62.3,40.9,62.3
		s33.4-32.4,39.8-55.3C84.2,88.7,82,86,82,82.9z"/>
	<path fill="#89C1B4" d="M123.5,41H113c-9,0-11-3.5-11-10.3V14c0-2.9-2.1-5-5-5H76.6c-2.9,0-5.6,2.1-5.6,5v20.4
		c0,2.9,2.6,5.6,5.6,5.6h16.9c5.9,0,10.5,0.5,10.5,10.1v8.2c0,4.4-0.7,10.8-8.6,10.8h-4.8c-2.3,0-4-0.6-5.2-1.3
		c-1.8-1.1-2.4-3.1-2.5-5.6c0-0.3,0.1-0.8,0.1-1.2v-8c0-2.1-1.9-3.9-4-3.9h-7.8h-2.5c-2.1,0-3.7,1.8-3.7,3.9v7.5
		c0,3.3-1.2,5.2-2.8,6.3c-2,1.4-4.8,1.4-6.7,1.4l-14.4,0c-3.3,0-6.2,2.7-6.2,6v14.8c0,3.3,3,6.2,6.3,6.2h14.8c3.3,0,5.9-2.9,5.9-6.2
		V76.7c0-3.3,0.6-5.9,2.3-7.6c1.4-1.3,3.6-2.1,7-2.1h4c4.3,0,8.7,0.9,8.7,8.3v7.6c0,1.9,1.6,3.7,3.5,3.9c0.2,0,0.6,0.2,0.8,0.2h10.5
		c2.1,0,4.3-2,4.3-4.1v-7.1c0-8.5,5.3-9.8,10.8-9.8h9.7c3,0,5.5-2.3,5.5-5.3V46.9C129,43.9,126.6,41,123.5,41z"/>
	<path fill="#89C1B4" d="M136.6,11h-11.3c-1.8,0-3.3,1.7-3.3,3.5v11.3c0,1.8,1.5,3.2,3.3,3.2h11.3c1.8,0,3.4-1.3,3.4-3.2V14.5
		C140,12.7,138.5,11,136.6,11z"/>
</g>
</svg>
